<?xml version="1.0" standalone="no"?>
<!DOCTYPE svg PUBLIC "-//W3C//DTD SVG 20010904//EN"
 "http://www.w3.org/TR/2001/REC-SVG-20010904/DTD/svg10.dtd">
<svg version="1.0" xmlns="http://www.w3.org/2000/svg"
 width="128.000000pt" height="128.000000pt" viewBox="0 0 128.000000 128.000000"
 preserveAspectRatio="xMidYMid meet">
<metadata>
Created by potrace 1.11, written by Peter Selinger 2001-2013
</metadata>
<g transform="translate(0.000000,128.000000) scale(0.100000,-0.100000)"
fill="#000000" stroke="none">
<path d="M670 1029 c-131 -52 -155 -91 -196 -306 -3 -15 -17 -25 -46 -35 -53
-16 -57 -41 -8 -48 28 -4 39 -12 53 -40 16 -31 17 -52 12 -169 -4 -74 -8 -138
-11 -143 -3 -4 -20 -10 -39 -14 -36 -6 -61 -27 -51 -42 7 -12 266 -13 288 -1
27 14 22 38 -9 45 -60 12 -73 22 -74 56 -3 87 1 261 6 279 10 29 40 41 79 31
40 -11 51 -6 60 30 9 37 -12 47 -78 35 -83 -15 -90 -9 -81 70 16 146 69 222
157 223 32 0 38 -4 55 -37 14 -30 26 -40 55 -47 47 -12 68 4 68 50 0 52 -43
74 -140 73 -41 0 -86 -5 -100 -10z"/>
</g>
</svg>
